<svg width="20.000000" height="20.000000" viewBox="0 0 20 20" fill="none" xmlns="http://www.w3.org/2000/svg" xmlns:xlink="http://www.w3.org/1999/xlink">
	<desc>
			Created with Pixso.
	</desc>
	<defs/>
	<rect id="Rectangle" width="20.000000" height="20.000000" fill="#D8D8D8" fill-opacity="0"/>
	<rect id="Rectangle" width="20.000000" height="20.000000" stroke="#979797" stroke-opacity="0" stroke-width="0.000000"/>
	<path id="Path" d="M13.55 13.81C9.66 13.81 6.51 10.92 6.51 7.36C6.51 6.02 6.96 4.78 7.73 3.75C4.69 4.69 2.5 7.33 2.5 10.43C2.5 14.33 5.94 17.5 10.2 17.5C13.59 17.5 16.46 15.49 17.5 12.7C16.37 13.4 15.01 13.81 13.55 13.81Z" fill="#FFFFFF" fill-opacity="1.000000" fill-rule="evenodd"/>
	<path id="Path" d="M6.51 7.36C6.51 6.02 6.96 4.78 7.73 3.75C4.69 4.69 2.5 7.33 2.5 10.43C2.5 14.33 5.94 17.5 10.2 17.5C13.59 17.5 16.46 15.49 17.5 12.7C16.37 13.4 15.01 13.81 13.55 13.81C9.66 13.81 6.51 10.92 6.51 7.36Z" stroke="#979797" stroke-opacity="0" stroke-width="0.000000"/>
</svg>
